<?xml version="1.0" encoding="utf-8"?>
<!-- Generator: Adobe Illustrator 21.0.0, SVG Export Plug-In . SVG Version: 6.00 Build 0)  -->
<svg version="1.1" id="Layer_1" xmlns="http://www.w3.org/2000/svg" xmlns:xlink="http://www.w3.org/1999/xlink" x="0px" y="0px"
	 viewBox="0 0 49.2 63.5" style="enable-background:new 0 0 49.2 63.5;" xml:space="preserve">
<style type="text/css">
	.st0{clip-path:url(#SVGID_2_);}
	.st1{clip-path:url(#SVGID_4_);fill:#F6F4F4;}
	.st2{clip-path:url(#SVGID_6_);fill:none;stroke:#F6F4F4;stroke-miterlimit:10;}
	.st3{clip-path:url(#SVGID_8_);}
	.st4{clip-path:url(#SVGID_10_);fill:#F6F4F4;}
	.st5{clip-path:url(#SVGID_12_);fill:none;stroke:#F6F4F4;stroke-miterlimit:10;}
	.st6{clip-path:url(#SVGID_14_);}
	.st7{clip-path:url(#SVGID_16_);fill:#F6F4F4;}
	.st8{clip-path:url(#SVGID_18_);fill:none;stroke:#F6F4F4;stroke-miterlimit:10;}
	.st9{clip-path:url(#SVGID_20_);}
	.st10{clip-path:url(#SVGID_22_);fill:#F6F4F4;}
	.st11{clip-path:url(#SVGID_24_);fill:none;stroke:#F6F4F4;stroke-miterlimit:10;}
</style>
<g>
	<defs>
		<path id="SVGID_1_" d="M44,57.5H5.7c0.4-5.3,4.8-9.3,10.3-9.3c3.2,0,6.2,1.5,8.2,4.1c0.3,0.4,1.1,0.4,1.4,0c2-2.6,5-4.1,8.2-4.1
			C39.2,48.2,43.5,52.2,44,57.5z M24.9,39.2c7.4,0,13.9,4.2,17.1,10.4c-2.1-1.9-5-3.1-8.1-3.1c-3.4,0-6.6,1.4-8.9,4
			c-2.3-2.5-5.5-4-8.9-4c-3.2,0-6,1.1-8.1,3C11,43.4,17.5,39.2,24.9,39.2z M45.8,58.4c0-11.5-9.4-20.9-20.9-20.9
			c-11.4,0-20.8,9.2-20.9,20.6c0,0.1,0,0.1,0,0.2c0,0,0,0,0,0c0,0,0,0.1,0,0.1c0,0.5,0.4,0.9,0.9,0.9h39.9c0.1,0,0.1,0,0.2,0
			c0.2,0,0.5-0.1,0.6-0.3C45.7,58.9,45.8,58.6,45.8,58.4z"/>
	</defs>
	<clipPath id="SVGID_2_">
		<use xlink:href="#SVGID_1_"  style="overflow:visible;"/>
	</clipPath>
	<g class="st0">
		<defs>
			<rect id="SVGID_3_" x="-495.1" y="-1369.7" width="1040" height="2802"/>
		</defs>
		<clipPath id="SVGID_4_">
			<use xlink:href="#SVGID_3_"  style="overflow:visible;"/>
		</clipPath>
		<rect x="-1.1" y="32.4" class="st1" width="51.9" height="31.8"/>
	</g>
</g>
<g>
	<defs>
		<rect id="SVGID_5_" x="-495.1" y="-1369.7" width="1040" height="2802"/>
	</defs>
	<clipPath id="SVGID_6_">
		<use xlink:href="#SVGID_5_"  style="overflow:visible;"/>
	</clipPath>
	<path class="st2" d="M44,57.5H5.7c0.4-5.3,4.8-9.3,10.3-9.3c3.2,0,6.2,1.5,8.2,4.1c0.3,0.4,1.1,0.4,1.4,0c2-2.6,5-4.1,8.2-4.1
		C39.2,48.2,43.5,52.2,44,57.5z M24.9,39.2c7.4,0,13.9,4.2,17.1,10.4c-2.1-1.9-5-3.1-8.1-3.1c-3.4,0-6.6,1.4-8.9,4
		c-2.3-2.5-5.5-4-8.9-4c-3.2,0-6,1.1-8.1,3C11,43.4,17.5,39.2,24.9,39.2z M45.8,58.4c0-11.5-9.4-20.9-20.9-20.9
		c-11.4,0-20.8,9.2-20.9,20.6c0,0.1,0,0.1,0,0.2c0,0,0,0,0,0c0,0,0,0.1,0,0.1c0,0.5,0.4,0.9,0.9,0.9h39.9c0.1,0,0.1,0,0.2,0
		c0.2,0,0.5-0.1,0.6-0.3C45.7,58.9,45.8,58.6,45.8,58.4z"/>
</g>
<g>
	<defs>
		<path id="SVGID_7_" d="M23.6,12.9c0,0.5,0,0.8,0,1c0,0.2,0,0.4,0,0.8c0,3.8-2.5,6.5-6,6.5c-0.2,0-0.5,0-0.9,0
			c-0.6,0-1.6,0.1-2.4,0.1C15.2,16.8,19,13.3,23.6,12.9z M19.7,9.8c0-2.6,2.2-4.8,4.8-4.8c2.6,0,4.8,2.2,4.8,4.8
			c0,0.7-0.2,1.5-0.5,2.1c-1.3-0.5-2.8-0.8-4.3-0.8c-1.5,0-3,0.3-4.3,0.8C19.9,11.3,19.7,10.7,19.7,9.8z M34.6,21.3
			c-0.5,0-1,0-1.3,0c-0.4,0-0.8,0-0.9,0c-3.4,0-7-2-7-5.7c0-1.2,0-2,0-2.7C30,13.3,33.8,16.8,34.6,21.3z M24.5,33.5
			c-5.7,0-10.3-4.6-10.3-10.3c0,0,0-0.1,0-0.1c0.1,0,0.3,0,0.4,0c0.6,0,1.3,0,2.2-0.1c0.4,0,0.7,0,0.9,0c3,0,5.5-1.6,6.8-4.2
			c1.5,2.7,4.8,4.2,8,4.2c0.1,0,0.4,0,0.8,0c0.7,0,1.2,0,1.6,0c0,0,0,0.1,0,0.1C34.8,28.9,30.2,33.5,24.5,33.5z M24.5,35.3
			c6.6,0,12-5.4,12-12c0-4.5-2.5-8.5-6.2-10.5c0.4-0.9,0.7-1.9,0.7-2.9c0-3.6-2.9-6.5-6.5-6.5c-3.6,0-6.5,2.9-6.5,6.5
			c0,1.2,0.2,2,0.6,2.9c-3.3,1.9-5.7,5.3-6.1,9.3c0,0,0,0.1,0,0.1c0,0.4-0.1,0.7-0.1,1.1C12.5,29.8,17.9,35.3,24.5,35.3z"/>
	</defs>
	<clipPath id="SVGID_8_">
		<use xlink:href="#SVGID_7_"  style="overflow:visible;"/>
	</clipPath>
	<g class="st3">
		<defs>
			<rect id="SVGID_9_" x="-495.1" y="-1369.7" width="1040" height="2802"/>
		</defs>
		<clipPath id="SVGID_10_">
			<use xlink:href="#SVGID_9_"  style="overflow:visible;"/>
		</clipPath>
		<rect x="7.5" y="-1.7" class="st4" width="34.1" height="42"/>
	</g>
</g>
<g>
	<defs>
		<rect id="SVGID_11_" x="-495.1" y="-1369.7" width="1040" height="2802"/>
	</defs>
	<clipPath id="SVGID_12_">
		<use xlink:href="#SVGID_11_"  style="overflow:visible;"/>
	</clipPath>
	<path class="st5" d="M23.6,12.9c0,0.5,0,0.8,0,1c0,0.2,0,0.4,0,0.8c0,3.8-2.5,6.5-6,6.5c-0.2,0-0.5,0-0.9,0c-0.6,0-1.6,0.1-2.4,0.1
		C15.2,16.8,19,13.3,23.6,12.9z M19.7,9.8c0-2.6,2.2-4.8,4.8-4.8c2.6,0,4.8,2.2,4.8,4.8c0,0.7-0.2,1.5-0.5,2.1
		c-1.3-0.5-2.8-0.8-4.3-0.8c-1.5,0-3,0.3-4.3,0.8C19.9,11.3,19.7,10.7,19.7,9.8z M34.6,21.3c-0.5,0-1,0-1.3,0c-0.4,0-0.8,0-0.9,0
		c-3.4,0-7-2-7-5.7c0-1.2,0-2,0-2.7C30,13.3,33.8,16.8,34.6,21.3z M24.5,33.5c-5.7,0-10.3-4.6-10.3-10.3c0,0,0-0.1,0-0.1
		c0.1,0,0.3,0,0.4,0c0.6,0,1.3,0,2.2-0.1c0.4,0,0.7,0,0.9,0c3,0,5.5-1.6,6.8-4.2c1.5,2.7,4.8,4.2,8,4.2c0.1,0,0.4,0,0.8,0
		c0.7,0,1.2,0,1.6,0c0,0,0,0.1,0,0.1C34.8,28.9,30.2,33.5,24.5,33.5z M24.5,35.3c6.6,0,12-5.4,12-12c0-4.5-2.5-8.5-6.2-10.5
		c0.4-0.9,0.7-1.9,0.7-2.9c0-3.6-2.9-6.5-6.5-6.5c-3.6,0-6.5,2.9-6.5,6.5c0,1.2,0.2,2,0.6,2.9c-3.3,1.9-5.7,5.3-6.1,9.3
		c0,0,0,0.1,0,0.1c0,0.4-0.1,0.7-0.1,1.1C12.5,29.8,17.9,35.3,24.5,35.3z"/>
</g>
<g>
	<defs>
		<path id="SVGID_13_" d="M44,57.5H5.7c0.4-5.3,4.8-9.3,10.3-9.3c3.2,0,6.2,1.5,8.2,4.1c0.3,0.4,1.1,0.4,1.4,0c2-2.6,5-4.1,8.2-4.1
			C39.2,48.2,43.5,52.2,44,57.5z M24.9,39.2c7.4,0,13.9,4.2,17.1,10.4c-2.1-1.9-5-3.1-8.1-3.1c-3.4,0-6.6,1.4-8.9,4
			c-2.3-2.5-5.5-4-8.9-4c-3.2,0-6,1.1-8.1,3C11,43.4,17.5,39.2,24.9,39.2z M45.8,58.4c0-11.5-9.4-20.9-20.9-20.9
			c-11.4,0-20.8,9.2-20.9,20.6c0,0.1,0,0.1,0,0.2c0,0,0,0,0,0c0,0,0,0.1,0,0.1c0,0.5,0.4,0.9,0.9,0.9h39.9c0.1,0,0.1,0,0.2,0
			c0.2,0,0.5-0.1,0.6-0.3C45.7,58.9,45.8,58.6,45.8,58.4z"/>
	</defs>
	<clipPath id="SVGID_14_">
		<use xlink:href="#SVGID_13_"  style="overflow:visible;"/>
	</clipPath>
	<g class="st6">
		<defs>
			<rect id="SVGID_15_" x="-495.1" y="-1369.7" width="1040" height="2802"/>
		</defs>
		<clipPath id="SVGID_16_">
			<use xlink:href="#SVGID_15_"  style="overflow:visible;"/>
		</clipPath>
		<rect x="-1.1" y="32.4" class="st7" width="51.9" height="31.8"/>
	</g>
</g>
<g>
	<defs>
		<rect id="SVGID_17_" x="-495.1" y="-1369.7" width="1040" height="2802"/>
	</defs>
	<clipPath id="SVGID_18_">
		<use xlink:href="#SVGID_17_"  style="overflow:visible;"/>
	</clipPath>
	<path class="st8" d="M44,57.5H5.7c0.4-5.3,4.8-9.3,10.3-9.3c3.2,0,6.2,1.5,8.2,4.1c0.3,0.4,1.1,0.4,1.4,0c2-2.6,5-4.1,8.2-4.1
		C39.2,48.2,43.5,52.2,44,57.5z M24.9,39.2c7.4,0,13.9,4.2,17.1,10.4c-2.1-1.9-5-3.1-8.1-3.1c-3.4,0-6.6,1.4-8.9,4
		c-2.3-2.5-5.5-4-8.9-4c-3.2,0-6,1.1-8.1,3C11,43.4,17.5,39.2,24.9,39.2z M45.8,58.4c0-11.5-9.4-20.9-20.9-20.9
		c-11.4,0-20.8,9.2-20.9,20.6c0,0.1,0,0.1,0,0.2c0,0,0,0,0,0c0,0,0,0.1,0,0.1c0,0.5,0.4,0.9,0.9,0.9h39.9c0.1,0,0.1,0,0.2,0
		c0.2,0,0.5-0.1,0.6-0.3C45.7,58.9,45.8,58.6,45.8,58.4z"/>
</g>
<g>
	<defs>
		<path id="SVGID_19_" d="M23.6,12.9c0,0.5,0,0.8,0,1c0,0.2,0,0.4,0,0.8c0,3.8-2.5,6.5-6,6.5c-0.2,0-0.5,0-0.9,0
			c-0.6,0-1.6,0.1-2.4,0.1C15.2,16.8,19,13.3,23.6,12.9z M19.7,9.8c0-2.6,2.2-4.8,4.8-4.8c2.6,0,4.8,2.2,4.8,4.8
			c0,0.7-0.2,1.5-0.5,2.1c-1.3-0.5-2.8-0.8-4.3-0.8c-1.5,0-3,0.3-4.3,0.8C19.9,11.3,19.7,10.7,19.7,9.8z M34.6,21.3
			c-0.5,0-1,0-1.3,0c-0.4,0-0.8,0-0.9,0c-3.4,0-7-2-7-5.7c0-1.2,0-2,0-2.7C30,13.3,33.8,16.8,34.6,21.3z M24.5,33.5
			c-5.7,0-10.3-4.6-10.3-10.3c0,0,0-0.1,0-0.1c0.1,0,0.3,0,0.4,0c0.6,0,1.3,0,2.2-0.1c0.4,0,0.7,0,0.9,0c3,0,5.5-1.6,6.8-4.2
			c1.5,2.7,4.8,4.2,8,4.2c0.1,0,0.4,0,0.8,0c0.7,0,1.2,0,1.6,0c0,0,0,0.1,0,0.1C34.8,28.9,30.2,33.5,24.5,33.5z M24.5,35.3
			c6.6,0,12-5.4,12-12c0-4.5-2.5-8.5-6.2-10.5c0.4-0.9,0.7-1.9,0.7-2.9c0-3.6-2.9-6.5-6.5-6.5c-3.6,0-6.5,2.9-6.5,6.5
			c0,1.2,0.2,2,0.6,2.9c-3.3,1.9-5.7,5.3-6.1,9.3c0,0,0,0.1,0,0.1c0,0.4-0.1,0.7-0.1,1.1C12.5,29.8,17.9,35.3,24.5,35.3z"/>
	</defs>
	<clipPath id="SVGID_20_">
		<use xlink:href="#SVGID_19_"  style="overflow:visible;"/>
	</clipPath>
	<g class="st9">
		<defs>
			<rect id="SVGID_21_" x="-495.1" y="-1369.7" width="1040" height="2802"/>
		</defs>
		<clipPath id="SVGID_22_">
			<use xlink:href="#SVGID_21_"  style="overflow:visible;"/>
		</clipPath>
		<rect x="7.5" y="-1.7" class="st10" width="34.1" height="42"/>
	</g>
</g>
<g>
	<defs>
		<rect id="SVGID_23_" x="-495.1" y="-1369.7" width="1040" height="2802"/>
	</defs>
	<clipPath id="SVGID_24_">
		<use xlink:href="#SVGID_23_"  style="overflow:visible;"/>
	</clipPath>
	<path class="st11" d="M23.6,12.9c0,0.5,0,0.8,0,1c0,0.2,0,0.4,0,0.8c0,3.8-2.5,6.5-6,6.5c-0.2,0-0.5,0-0.9,0
		c-0.6,0-1.6,0.1-2.4,0.1C15.2,16.8,19,13.3,23.6,12.9z M19.7,9.8c0-2.6,2.2-4.8,4.8-4.8c2.6,0,4.8,2.2,4.8,4.8
		c0,0.7-0.2,1.5-0.5,2.1c-1.3-0.5-2.8-0.8-4.3-0.8c-1.5,0-3,0.3-4.3,0.8C19.9,11.3,19.7,10.7,19.7,9.8z M34.6,21.3c-0.5,0-1,0-1.3,0
		c-0.4,0-0.8,0-0.9,0c-3.4,0-7-2-7-5.7c0-1.2,0-2,0-2.7C30,13.3,33.8,16.8,34.6,21.3z M24.5,33.5c-5.7,0-10.3-4.6-10.3-10.3
		c0,0,0-0.1,0-0.1c0.1,0,0.3,0,0.4,0c0.6,0,1.3,0,2.2-0.1c0.4,0,0.7,0,0.9,0c3,0,5.5-1.6,6.8-4.2c1.5,2.7,4.8,4.2,8,4.2
		c0.1,0,0.4,0,0.8,0c0.7,0,1.2,0,1.6,0c0,0,0,0.1,0,0.1C34.8,28.9,30.2,33.5,24.5,33.5z M24.5,35.3c6.6,0,12-5.4,12-12
		c0-4.5-2.5-8.5-6.2-10.5c0.4-0.9,0.7-1.9,0.7-2.9c0-3.6-2.9-6.5-6.5-6.5c-3.6,0-6.5,2.9-6.5,6.5c0,1.2,0.2,2,0.6,2.9
		c-3.3,1.9-5.7,5.3-6.1,9.3c0,0,0,0.1,0,0.1c0,0.4-0.1,0.7-0.1,1.1C12.5,29.8,17.9,35.3,24.5,35.3z"/>
</g>
</svg>
